PathFileType	4	(X/Y/Z)	pose_F01_0-95.trc
DataRate	CameraRate	NumFrames	NumMarkers	Units	OrigDataRate	OrigDataStartFrame	OrigNumFrames
30	30	12	21	m	30	47	95
Frame#	Time	CHip			RHip			RKnee			RAnkle			RBigToe			RSmallToe			RHeel			LHip			LKnee			LAnkle			LBigToe			LSmallToe			LHeel			Neck			Nose			RShoulder			RElbow			RWrist			LShoulder			LElbow			LWrist			
		X1	Y1	Z1	X2	Y2	Z2	X3	Y3	Z3	X4	Y4	Z4	X5	Y5	Z5	X6	Y6	Z6	X7	Y7	Z7	X8	Y8	Z8	X9	Y9	Z9	X10	Y10	Z10	X11	Y11	Z11	X12	Y12	Z12	X13	Y13	Z13	X14	Y14	Z14	X15	Y15	Z15	X16	Y16	Z16	X17	Y17	Z17	X18	Y18	Z18	X19	Y19	Z19	X20	Y20	Z20	X21	Y21	Z21	
47	1.5666666666666667	-0.2324518705818045	1.8335978187872797	-0.7487712585018494	-0.25247361316702205	1.8461858591606386	-0.6863238209627436	-0.25480887769832206	1.7071037444395407	-0.556459190312462													-0.21621975377803523	1.8491764243417865	-0.7913455185876251	-0.21876756983547468	1.7125041152608818	-0.7702332634574174													-0.22779562644836004	2.0001089419592364	-0.7634291143921269	-0.22100901240605325	2.065477306579833	-0.713776651849348	-0.25860475258695603	1.9983368542578541	-0.7008938085816018	-1.2187180988429671	1.8466913549026496	0.33272919187906136	-0.3018675775051245	1.8762417223045633	-0.5357024610789597	-0.19537040087503674	2.002420150808195	-0.8262240686818165	-0.9841284316270024	1.832007396095382	-0.08284106952551139	-0.7685282441487311	1.7677603911103599	-0.3531396517854391
48	1.6	-0.2335171494925439	1.8390650832009874	-0.7437595827885674	-0.2525316780025846	1.8521647948760922	-0.6840844879863306	-0.25480887769832206	1.7071037444395407	-0.556459190312462													-0.21567304793555303	1.8542110580530202	-0.7935477158216636	-0.2185276146698929	1.7144549548275125	-0.762456407766152													-0.22701637703948613	2.001794537498948	-0.7716334836174302	-0.2179717110751833	2.071670387179189	-0.7241401842594795	-0.25629696193589147	2.001129882187261	-0.7032429208761453	-1.0303458375356045	1.8598039349854942	0.1380459880658425	-0.300648387942922	1.8715541323319933	-0.5408630431140432	-0.1942780504179272	2.005015478079305	-0.8453281322779251	-0.9484654217168675	1.832947514944021	-0.13467489763188295	-0.7958415132026845	1.7846956769850093	-0.2960055741200462
49	1.6333333333333333	-0.23266734727082486	1.8576795472807803	-0.7423484880001124	-0.25258974283814717	1.858143730591546	-0.6818451550099177	-0.25480887769832206	1.7071037444395407	-0.556459190312462													-0.2151263420930708	1.859245691764254	-0.795749913055702	-0.2182876595043111	1.7164057943941435	-0.7546795520748865													-0.2274070058994735	2.018288246482616	-0.7765845723218278	-0.21948266959795965	2.081805608262172	-0.7321348328848432	-0.2551023445435039	2.0168773062038325	-0.7024440038780507	-0.8419735762282416	1.8729165150683391	-0.056637215747376346	-0.29942919838071946	1.8668665423594233	-0.5460236251491266	-0.1932612348160316	2.0221355274757857	-0.8555104826053119	-0.16371963438658096	1.9522942127410419	-0.9012629050338199	-0.819763101352701	1.7935082248956067	-0.2702904464772251
50	1.6666666666666667	-0.23249230644251498	1.8602161918077813	-0.7429191121823453	-0.2502560861356177	1.8582426955329394	-0.6925165158856794	-0.25480887769832206	1.7071037444395407	-0.556459190312462													-0.21498502982654918	1.8617013057320047	-0.7960077665135658	-0.2180477043387293	1.7183566339607743	-0.7469026963836211													-0.228444591078127	2.020535028096259	-0.7803535516600945	-0.219066472331538	2.0843582193044354	-0.7411372512897806	-0.25620822689778955	2.016701627103802	-0.7059040710880302	-0.6536013149208789	1.8860290951511838	-0.25132041956059514	-0.298210008818517	1.8621789523868533	-0.55118420718421	-0.19661587384511744	2.022573065735928	-0.8569741676226416	-0.9712321324888523	1.8434394449439657	-0.12403127166983224	-0.8115471790096395	1.778103333296234	-0.30483557049796917
51	1.7	-0.23447744469947263	1.8486402687098145	-0.7479188805269944	-0.2543356705742518	1.8447955901171131	-0.6952967502961885	-0.25480887769832206	1.7071037444395407	-0.556459190312462													-0.21671944529695147	1.8488398460636146	-0.8011131679459986	-0.2178077491731475	1.720307473527405	-0.7391258406923557													-0.23209616390132026	2.0031490217831203	-0.7790520444835035	-0.22020867273506645	2.0727827095213267	-0.7425498089102441	-0.25882825638897394	2.000498822568625	-0.701542133893087	-0.4652290536135162	1.8991416752340284	-0.44600362337381394	-0.29699081925631454	1.8574913624142833	-0.5563447892192935	-0.19944732873140752	2.0062854071884764	-0.8530471951486304	-0.982726882812586	1.8295862803351253	-0.1098974911107242	-0.1602698485270938	1.8422772471329731	-0.9281865251782953
52	1.7333333333333334	-0.2345723985650437	1.8366427103743668	-0.7469217300441449	-0.25226480043031757	1.832385071973814	-0.696463042734644	-0.25480887769832206	1.7071037444395407	-0.556459190312462													-0.2168583129698873	1.8403079204296584	-0.8002483329179754	-0.2175677940075657	1.7222583130940359	-0.7313489850010902													-0.23030031337208798	1.9930944987930477	-0.771342726279193	-0.2212768084876394	2.0629116105532845	-0.7439895059153941	-0.2578288895566227	1.985635933858933	-0.6957871913959687	-0.27685679230615323	1.912254255316873	-0.6406868271870327	-0.295771629694112	1.8528037724417132	-0.5615053712543769	-0.19945335675498152	1.998543736345911	-0.8520186651106849	-0.9747051917584696	1.8134258767846259	-0.12267687428085808	-0.8134749688498745	1.7457352108678437	-0.3228790142226526
53	1.7666666666666666	-0.23321621932425848	1.8434732605809878	-0.7528504217282495	-0.25203003374672656	1.8416216422183633	-0.7056145236748409	-0.25480887769832206	1.7071037444395407	-0.556459190312462													-0.21439243467238656	1.8450452821523087	-0.8030913065801375	-0.2173278388419839	1.7242091526606669	-0.7235721293098247													-0.22952990274476984	2.000766644180205	-0.7804270801955941	-0.22160092440353185	2.0724565771927144	-0.7475406504227586	-0.2571140591786865	1.9946747273089405	-0.7050726151645527	-1.3780424894811696	1.8246865035991746	0.48606369152934414	-0.2938185756741767	1.8802784251391729	-0.5271947821108793	-0.19785119408174132	2.004903601805177	-0.8578625042551922	-0.9730523854130011	1.8215587968993525	-0.12891557135585058	-0.8195496960712225	1.7575852484240722	-0.3191827629530459
54	1.8	-0.23134548143275133	1.8528133710451031	-0.7475004150011767	-0.24762035846750993	1.8538825042556903	-0.7027909421203226	-0.25480887769832206	1.7071037444395407	-0.556459190312462													-0.2105021862867039	1.8527278842382804	-0.7997339359516731	-0.2170878836764021	1.7261599922272977	-0.7157952736185593													-0.22562351721750054	2.0123221401997116	-0.789256953695712	-0.22037738951330363	2.0783608710705965	-0.7542952183725752	-0.25732269429304244	2.006893781189618	-0.7180209226972298	-1.377400089184294	1.8407312313016084	0.4756484114862895	-0.2936216817204382	1.8903051684391186	-0.5289592560718476	-0.19201802278637728	2.019425263674487	-0.8609363836497661	-0.993062679997793	1.833684043843376	-0.09763971545736257	-0.8173481868989534	1.7639895630505484	-0.32347532005303936
55	1.8333333333333333	-0.229284304482865	1.840846585917316	-0.7486221314124539	-0.24707269902114487	1.840482440909504	-0.6983253350647247	-0.25480887769832206	1.7071037444395407	-0.556459190312462													-0.2069801792687781	1.839171824534245	-0.8061111067158806	-0.21412847533811968	1.7247129749101957	-0.7214190052840634													-0.22309361727750027	2.006184848651984	-0.7993368984733216	-0.21832591474698648	2.074634855766677	-0.7564962194388812	-0.255572347498896	2.004551247488835	-0.7399818093417561	-1.383188911267772	1.8394293291848294	0.4871018682848968	-0.2926646814524953	1.8879842548839876	-0.5263500855830154	-0.1892928189734735	2.0071492855310837	-0.8590612192755641	-0.9959415972109231	1.8236203767862218	-0.07388365021202409	-0.15183204486600266	1.8463217875000342	-0.9177111558972313
56	1.8666666666666667	-0.22882695679577852	1.8379824717329056	-0.7449420296085786	-0.2446666376483674	1.8369008252683454	-0.6882638569343632	-0.25480887769832206	1.7071037444395407	-0.556459190312462													-0.20752446362291432	1.8376508921641277	-0.8056929309857804	-0.21116906699983726	1.7232659575930935	-0.7270427369495677													-0.22256062575691685	1.9990405767964088	-0.7957585035627512	-0.21629196517307153	2.0721089734599194	-0.7589809929084058	-0.25399521213556153	1.9983022702134448	-0.7140014133123668	-1.38897773335125	1.8381274270680503	0.49855532508350414	-0.29170768118455237	1.8856633413288566	-0.5237409150941834	-0.1924573702011594	2.0022501702599733	-0.8705283292722538	-0.9844951227665675	1.814284034096497	-0.08603998050429196	-0.14488937527508483	1.8448633270010617	-0.8523780238392067
57	1.9	-0.2294022560325817	1.8493794492942879	-0.737525700137569	-0.2458869825617556	1.849462147581883	-0.6842491579593359	-0.25480887769832206	1.7071037444395407	-0.556459190312462													-0.20964101108690722	1.8513910936033713	-0.7932692694082871	-0.20820965866155483	1.7218189402759916	-0.7326664686150718													-0.22175294599829112	2.0089750562884836	-0.7945719927050371	-0.21295602547347772	2.0797659754606466	-0.7592286676051342	-0.252156373745699	2.0077192431030704	-0.7094281516110355	-1.3947665554347282	1.836825524951271	0.5100087818821114	-0.2907506809166095	1.8833424277737256	-0.5211317446053513	-0.18941032101937702	2.014120739202951	-0.8718647889936093	-0.17330151924705767	1.9381994816438743	-0.8878471803277792	-0.15541029298309056	1.862699306155215	-0.8543802887486466
58	1.9333333333333333	-0.23047580890473984	1.8474027036584895	-0.7415823043424379	-0.24663146086626153	1.8466978028286665	-0.69002830489125	-0.25480887769832206	1.7071037444395407	-0.556459190312462													-0.21035023049878973	1.847487772097531	-0.7994624396066177	-0.20135720093100493	1.7260130383612162	-0.7111551854187247													-0.22370684234359056	2.0105344488945183	-0.7825345165637149	-0.21628153782001583	2.0800991862674167	-0.7504523357938172	-0.2510602095075038	2.005053638785668	-0.6961990359847712	-1.4005553775182065	1.835523622834492	0.5214622386807187	-0.2897936806486666	1.8810215142185949	-0.5185225741165191	-0.19093193707884537	2.015414616337603	-0.8680946114870535	-0.9630599378672051	1.8260958923812853	-0.12928388266098365	-0.8515832644505921	1.7667465742740647	-0.2416691290220528
